# xmcd
#
# Track frame offsets: 
#        150
#        11980
#        23092
#        32693
#        47095
#        60114
#        73492
#        84784
#        96656
#        108314
#        119704
#        134324
#        144457
#        154611
#        167889
#        177627
#        189818
#        200923
#        212163
#        222856
#        235072
#        246278
#        259184
#        270998
#
# Disc length: 3772 seconds
#
# Revision: 0
# Processed by: cddbd v1.5.2PL0 Copyright (c) Steve Scherf et al.
# Submitted via: ExactAudioCopy v0.99pb5
#
DISCID=620eba18
DTITLE=Conway Twitty - Sings and Look Into My Teardrops
DYEAR=2010
DGENRE=Country
TTITLE0=Ribbon Of Darkness
TTITLE1=Green Green Grass Of Home
TTITLE2=Wine
TTITLE3=The Other Woman
TTITLE4=Together Forever
TTITLE5=Truck Drivin' Man
TTITLE6=That Kind Of Girl
TTITLE7=I'll Have Another Cup Of Coffee (Then I'll Go)
TTITLE8=Tips Of My Fingers
TTITLE9=Guess My Eyes Were Bigger Than My Heart
TTITLE10=That's What It's Like To Be Lonesome
TTITLE11=Honky Tonk Man
TTITLE12=Don't You Believe Her
TTITLE13=Almost Persuaded
TTITLE14=I Don't Want To Be With Me
TTITLE15=I Made Her That Way
TTITLE16=The Wild Side Of Life
TTITLE17=There Stands The Glass
TTITLE18=Look Into My Teardrops
TTITLE19=If You Were Mine To Lose
TTITLE20=Fraulein
TTITLE21=Take Me
TTITLE22=Another Man's Woman
TTITLE23=Before I'll Set Her Free
EXTD=
EXTT0=
EXTT1=
EXTT2=
EXTT3=
EXTT4=
EXTT5=
EXTT6=
EXTT7=
EXTT8=
EXTT9=
EXTT10=
EXTT11=
EXTT12=
EXTT13=
EXTT14=
EXTT15=
EXTT16=
EXTT17=
EXTT18=
EXTT19=
EXTT20=
EXTT21=
EXTT22=
EXTT23=
PLAYORDER=
